<?xml version="1.0" encoding="utf-8"?>
<!-- Generator: Adobe Illustrator 22.0.0, SVG Export Plug-In . SVG Version: 6.00 Build 0)  -->
<svg version="1.1" id="Capa_1" xmlns="http://www.w3.org/2000/svg" xmlns:xlink="http://www.w3.org/1999/xlink" x="0px" y="0px"
	 viewBox="0 0 366 366" style="enable-background:new 0 0 366 366;" xml:space="preserve">
<style type="text/css">
	.st0{fill:#E6E8ED;stroke:#2B303A;stroke-width:9;stroke-miterlimit:10;}
	.st1{fill:#005BA9;}
	.st2{fill:#0066CC;}
</style>
<path id="borderDark_1_" class="st0" d="M106.9,77.8v-4.3c0-4,2.2-7.7,5.6-9.8l64.9-37.5c3.4-2.1,7.7-2.1,11.2,0l64.9,37.6
	c3.4,2.1,5.6,5.8,5.6,9.8v75c0,4-2.1,7.7-5.6,9.8l-64.9,37.5c-3.4,2.1-7.7,2.1-11.2,0l-64.9-37.6c-3.4-2.1-5.6-5.8-5.6-9.8V77.8"/>
<path id="letter" class="st1" d="M151.4,145.3v-5c0-5.3,3.8-7.5,8.3-4.8l17.5,10.1c3.4,1.9,7.7,1.9,11.2,0l21.3-12.5
	c3.4-2.1,5.6-5.8,5.6-9.8l-0.2-24.7c0-4-2.2-7.7-5.6-9.6l-21.1-12.3c-3.4-1.9-7.7-1.9-11.1,0l-11.7,6.6c-3.5,1.9-7.7,1.9-11.2-0.2
	l-4.3-2.6c-4.5-2.7-4.5-7,0.2-9.8l26.9-15.5c3.4-2.1,7.7-1.9,11.2,0L228,78.1c3.4,2.1,5.6,5.8,5.6,9.8v45.8c0,4-2.2,7.7-5.6,9.8
	l-39.6,22.7c-3.4,1.9-7.7,1.9-11.2,0l-20.3-11.7C153.7,152.9,151.4,149.1,151.4,145.3z"/>
<path id="light" class="st2" d="M228.2,78.5l-39.6-22.9c-3.4-2.1-7.7-2.1-11.2,0l-26.9,15.5c-4.5,2.5-4.5,6.9-0.2,9.8l4.2,2.6
	c3.4,2.1,7.7,2.1,11.2,0.2l11.7-6.7c3.4-1.9,7.7-1.9,11.1,0l21.1,12.2c1.8,1,3,2.4,4.2,4.2l18.4-10.6
	C231.2,80.9,229.9,79.4,228.2,78.5z"/>
<g>
	<path d="M21.8,304.3v-43h6.1l13.8,21.7c3.2,5,5.7,9.6,7.7,14l0.1-0.1c-0.5-5.7-0.6-11-0.6-17.7v-18h5.2v43h-5.6l-13.6-21.8
		c-3-4.8-5.9-9.7-8-14.3l-0.2,0.1c0.3,5.4,0.4,10.6,0.4,17.7v18.4H21.8z"/>
	<path d="M100.5,282.4c0,14.8-9,22.6-19.9,22.6c-11.3,0-19.3-8.8-19.3-21.8c0-13.6,8.5-22.6,19.9-22.6
		C92.9,260.7,100.5,269.7,100.5,282.4z M67.2,283.1c0,9.2,5,17.4,13.7,17.4c8.8,0,13.8-8.1,13.8-17.8c0-8.5-4.5-17.5-13.7-17.5
		C71.7,265.2,67.2,273.7,67.2,283.1z"/>
	<path d="M114.3,266.1h-13.1v-4.7H133v4.7h-13.1v38.2h-5.6V266.1z"/>
	<path d="M151.3,261.4h23.1v4.7h-17.6v14.3h16.3v4.6h-16.3v19.4h-5.5V261.4z"/>
	<path d="M219,282.4c0,14.8-9,22.6-19.9,22.6c-11.3,0-19.3-8.8-19.3-21.8c0-13.6,8.5-22.6,19.9-22.6
		C211.4,260.7,219,269.7,219,282.4z M185.7,283.1c0,9.2,5,17.4,13.7,17.4c8.8,0,13.8-8.1,13.8-17.8c0-8.5-4.5-17.5-13.7-17.5
		C190.3,265.2,185.7,273.7,185.7,283.1z"/>
	<path d="M231.8,261.4v25.4c0,9.6,4.3,13.7,10,13.7c6.4,0,10.5-4.2,10.5-13.7v-25.4h5.6v25c0,13.2-6.9,18.6-16.3,18.6
		c-8.8,0-15.4-5-15.4-18.4v-25.3H231.8z"/>
	<path d="M267.5,304.3v-43h6.1l13.8,21.7c3.2,5,5.7,9.6,7.7,14l0.1-0.1c-0.5-5.7-0.6-11-0.6-17.7v-18h5.2v43h-5.6l-13.6-21.8
		c-3-4.8-5.9-9.7-8-14.3l-0.2,0.1c0.3,5.4,0.4,10.6,0.4,17.7v18.4H267.5z"/>
	<path d="M309.4,262c3.4-0.5,7.4-0.9,11.8-0.9c8,0,13.6,1.8,17.4,5.4c3.8,3.5,6.1,8.5,6.1,15.4c0,7-2.2,12.7-6.2,16.7
		c-4,4-10.6,6.2-19,6.2c-4,0-7.3-0.2-10.1-0.5V262z M314.9,299.9c1.4,0.3,3.4,0.3,5.6,0.3c11.9,0,18.3-6.6,18.3-18.2
		c0.1-10.1-5.7-16.6-17.4-16.6c-2.9,0-5,0.3-6.5,0.6V299.9z"/>
</g>
</svg>
